PathFileType	4	(X/Y/Z)	D:\TRACE\v60_Jaco2_6-2-23\JustBodyDRS_Motion3_8-platform.trc
DataRate	CameraRate	NumFrames	NumMarkers	Units	OrigDataRate	OrigDataStartFrame	OrigNumFrames
100.00	100.00	      49	5	mm	100.00	6126	      7000
Frame#	Time	Left_Front			Right_Front			Left_Aft			Right_Aft			Post			
		X1	Y1	Z1	X2	Y2	Z2	X3	Y3	Z3	X4	Y4	Z4	X5	Y5	Z5	

6126	61.250	-779.29901	20.54114	-648.32397	791.48438	18.85632	-625.34705	-710.60803	3.67829	485.59457	704.17218	-0.13117	591.15833	16.02656	1322.99390	-939.78357	
6127	61.260	-778.99323	20.26180	-648.33374	791.59723	18.55902	-625.44983	-710.40558	3.75477	485.43311	704.56091	0.26706	591.04480	16.38089	1322.53137	-940.64044	
6128	61.270	-778.53418	19.93713	-648.26331	791.72260	18.29684	-625.55225	-710.24481	4.02265	485.31393	704.88617	0.53801	591.05609	16.62633	1321.88513	-941.54822	
6129	61.280	-778.48071	19.39581	-648.43640	791.95215	17.99533	-625.59406	-709.87177	4.13416	485.23193	704.95251	0.66476	591.08673	16.59546	1321.44653	-942.33014	
6130	61.290	-778.41205	19.21163	-648.47992	792.11029	17.75931	-625.66199	-709.93976	4.59442	485.09198	705.04010	0.92290	591.05536	16.80845	1321.25903	-942.84076	
6131	61.300	-778.20441	19.04757	-648.61023	792.22632	17.58507	-625.77075	-709.67108	4.71459	485.24454	705.18378	1.14108	590.93329	17.20653	1320.88220	-943.79675	
6132	61.310	-778.09839	18.84662	-648.71387	792.42719	17.32748	-625.83600	-709.46039	4.86362	485.27545	705.25836	1.30899	590.80359	17.39715	1320.56250	-944.49719	
6133	61.320	-777.96295	18.60324	-648.80939	792.70032	17.05105	-625.92786	-709.24274	4.93954	485.29150	705.41467	1.41118	590.81989	17.53017	1320.19714	-945.14215	
6134	61.330	-777.89917	18.40944	-648.90942	792.79523	16.78597	-625.95923	-709.10333	4.98968	485.25818	705.54736	1.52076	590.88354	17.76307	1319.85999	-945.55096	
6135	61.340	-777.73273	18.19617	-649.04102	793.03693	16.55525	-625.81403	-708.95490	5.07969	485.22415	705.32190	1.47693	590.85284	17.82184	1319.52112	-945.90222	
6136	61.350	-777.52893	17.95695	-649.12689	793.10345	16.27322	-626.08734	-708.73560	5.25434	485.15186	705.72113	1.88732	590.90802	17.92005	1319.10571	-946.28271	
6137	61.360	-777.41125	17.82668	-649.22620	793.31616	16.11641	-626.18097	-708.57483	5.39418	485.15088	705.93683	2.17771	590.87549	17.99036	1318.78333	-946.62677	
6138	61.370	-777.23914	17.61756	-649.32660	793.39435	15.86643	-626.19012	-708.39618	5.53250	485.16205	706.10266	2.39163	590.74695	17.98968	1318.42468	-946.76025	
6139	61.380	-777.34381	17.68192	-648.88885	793.51825	15.63109	-626.16034	-708.33630	5.60624	485.13791	706.29034	2.60818	590.65924	18.14685	1318.11255	-947.08759	
6140	61.390	-776.84656	17.23364	-649.18365	793.71631	15.46610	-626.07135	-708.21735	5.64079	485.10718	706.53210	2.77301	590.59778	18.45498	1317.91553	-947.49323	
6141	61.400	-776.77942	17.10073	-649.11536	793.88281	15.32559	-626.07117	-708.06226	5.74575	485.07837	706.70972	3.00335	590.45959	18.61612	1317.73572	-947.77344	
6142	61.410	-776.61078	16.91475	-649.05304	793.96228	15.24478	-626.10980	-707.87543	5.86874	485.08167	706.65997	3.01943	590.43579	18.74250	1317.58569	-948.12769	
6143	61.420	-776.41034	16.75803	-649.01941	794.07593	15.16176	-626.13562	-707.79272	5.94134	485.05215	706.83539	3.17903	590.30927	18.85813	1317.47131	-948.50995	
6144	61.430	-776.40936	16.69556	-649.05511	794.09650	15.01015	-626.14282	-707.73999	5.97553	485.06003	706.90405	3.14489	590.41541	18.82588	1317.33984	-948.83160	
6145	61.440	-776.33411	16.64387	-648.98834	794.22552	15.03320	-626.04492	-707.72516	5.99478	485.02609	706.86237	3.16626	590.37531	18.68353	1317.21167	-949.08789	
6146	61.450	-776.34137	16.64076	-649.01282	794.30078	14.95578	-626.08685	-707.70258	6.06001	484.97208	706.86810	3.27989	590.23969	18.80219	1317.08972	-949.27466	
6147	61.460	-776.31006	16.72248	-649.01459	794.33264	14.95689	-626.10638	-707.63055	6.13870	484.92496	706.92627	3.27999	590.21527	19.06200	1317.02893	-949.43115	
6148	61.470	-776.22937	16.53263	-649.01190	794.35675	14.80136	-626.24390	-707.59619	6.20773	484.87430	706.98444	3.18542	590.35022	19.14319	1317.00916	-949.55579	
6149	61.480	-776.21759	16.41583	-648.96899	794.43750	14.58018	-626.22839	-707.57220	6.14079	484.89178	706.95929	3.35700	590.23761	19.04011	1316.83630	-949.50745	
6150	61.490	-776.17706	16.35292	-649.03656	794.39661	14.45855	-626.29230	-707.61621	6.18350	484.83368	706.93555	3.38938	590.17938	19.02808	1316.52332	-949.48175	
6151	61.500	-776.04492	16.29198	-649.10468	794.33276	14.54331	-626.31409	-707.72632	6.49594	484.63632	706.94153	3.38887	590.19049	19.23690	1316.49341	-949.47009	
6152	61.510	-776.07172	16.33064	-649.04871	794.41357	14.51233	-626.33118	-707.80261	6.66427	484.62634	707.47034	4.04343	590.50983	19.23352	1316.48230	-949.47302	
6153	61.520	-776.14972	16.38912	-648.99054	794.45587	14.60160	-626.25006	-707.77612	6.68608	484.51843	707.37207	3.79574	590.35187	19.20228	1316.61792	-949.48584	
6154	61.530	-776.13550	16.36153	-649.04376	794.52167	14.57422	-626.32062	-707.74335	6.64285	484.52274	707.05676	3.64333	590.38995	19.15308	1316.76465	-949.57709	
6155	61.540	-776.11041	16.38200	-649.01794	794.46057	14.70945	-626.31836	-707.75592	6.55278	484.57861	706.97559	3.61812	590.36230	19.12971	1316.67407	-949.49805	
6156	61.550	-776.12402	16.44905	-649.07245	794.39154	14.61617	-626.28882	-707.56409	6.05829	484.91595	707.00708	3.55532	590.35956	19.13942	1316.68726	-949.47937	
6157	61.560	-776.20361	16.57679	-649.05505	794.40472	14.70049	-626.20953	-707.62207	6.10850	484.92917	706.95331	3.34843	590.34106	19.16936	1316.85828	-949.35431	
6158	61.570	-776.23248	16.65945	-649.05865	794.45270	14.81860	-626.17120	-707.59674	6.07027	484.91284	706.94031	3.28528	590.53021	19.14964	1317.11438	-949.26941	
6159	61.580	-776.25867	16.75747	-649.07837	794.43988	14.90937	-626.22644	-707.55023	6.03510	484.88388	706.88519	3.26111	590.42334	19.09138	1317.33057	-949.15570	
6160	61.590	-776.28845	16.75348	-649.02936	794.46588	14.96254	-626.17242	-707.51465	5.95342	484.91501	706.79132	3.20468	590.60260	19.03527	1317.42957	-948.86053	
6161	61.600	-776.34235	16.95163	-649.05365	794.54132	15.03100	-626.12140	-707.57410	5.86999	485.00397	706.81476	3.12953	590.63885	19.08842	1317.44604	-948.61224	
6162	61.610	-776.35632	17.10916	-649.02643	794.52600	15.20802	-626.11871	-707.63312	5.73233	485.05933	706.80109	3.07669	590.76324	19.01046	1317.59058	-948.13477	
6163	61.620	-776.42267	17.22164	-649.01459	794.38348	15.39138	-626.09155	-707.63300	5.63350	485.11285	706.71185	2.95363	590.82776	18.89993	1317.85144	-947.92957	
6164	61.630	-776.55658	17.40631	-648.98077	794.25330	15.65971	-626.07532	-707.68402	5.56590	485.14264	706.51599	2.72569	590.80597	18.71194	1318.19324	-947.66388	
6165	61.640	-776.84619	17.77408	-648.99933	794.05420	15.88006	-626.04083	-707.91211	5.47016	485.17267	706.46997	2.53394	590.67609	18.48873	1318.66370	-947.16803	
6166	61.650	-777.01532	17.95484	-649.04108	793.76892	16.05894	-626.05298	-708.20538	5.33409	485.21286	706.28284	2.40035	590.79980	18.17937	1318.90930	-946.65454	
6167	61.660	-777.14752	18.10815	-648.90436	793.49713	16.22378	-625.99646	-708.44293	5.24390	485.22476	706.07410	2.14221	590.94080	18.15990	1319.25867	-945.85046	
6168	61.670	-777.24359	18.30977	-648.82532	793.37598	16.47317	-625.91534	-708.61017	5.13223	485.26425	705.91638	1.91025	591.01031	18.21840	1319.65369	-945.14728	
6169	61.680	-777.44934	18.61262	-648.85529	793.41571	16.82733	-625.70007	-708.70996	4.98101	485.27560	705.70996	1.74806	591.03387	18.26530	1319.79150	-944.66937	
6170	61.690	-777.63062	18.81240	-648.92407	793.26520	17.02022	-625.68396	-708.89935	4.89141	485.27298	705.73566	1.41074	590.77875	18.09321	1320.07410	-944.27338	
6171	61.700	-777.80481	18.88749	-648.82532	792.98962	17.11328	-625.81506	-709.01996	4.79687	485.35602	705.40955	1.49610	590.99463	17.77976	1320.36072	-943.69983	
6172	61.710	-777.44769	19.17715	-648.16473	792.75360	17.29319	-625.84265	-709.18542	4.65024	485.39215	705.32532	1.37873	590.98511	17.23096	1320.75977	-942.95154	
6173	61.720	-777.56354	19.31270	-648.23230	792.37567	17.54766	-625.77271	-709.49451	4.43899	485.29218	705.29016	1.16858	591.12329	17.12126	1321.05859	-942.58020	
6174	61.730	-777.80292	19.52003	-648.14264	792.25848	17.78682	-625.69409	-709.70496	4.19947	485.32492	705.05493	0.95314	591.25543	16.84327	1321.33875	-942.33807	
